<svg width="24" height="24" viewBox="0 0 24 24" fill="none" xmlns="http://www.w3.org/2000/svg">
<g clip-path="url(#clip0_54_8)">
<path d="M7.29596 1.60659L6.68758 17.4222C5.86888 17.002 4.84174 16.8202 3.764 16.9732C1.44014 17.3023 -0.233196 19.0553 0.0266045 20.8882C0.286444 22.7211 2.38088 23.9399 4.70464 23.6106C6.76702 23.3184 8.31512 21.9046 8.45578 20.3091L8.45622 20.31C8.45654 20.3064 8.45674 20.301 8.45706 20.2969C8.46052 20.2564 8.46248 20.2153 8.46398 20.1745C8.55052 18.5272 9.08028 6.01401 9.08028 6.01401L22.1286 4.66963L21.5393 15.9392C20.7019 15.4732 19.6257 15.2655 18.494 15.4259C16.1701 15.7554 14.4969 17.508 14.7567 19.3411C15.0164 21.1739 17.1109 22.3928 19.4347 22.0632C21.541 21.7651 23.1103 20.2969 23.1926 18.6598L23.1936 18.6588C23.2378 17.9232 23.974 0.935993 24 0.335693L7.29596 1.60659Z" fill="black"/>
</g>
<defs>
<clipPath id="clip0_54_8">
<rect width="24" height="24" fill="white"/>
</clipPath>
</defs>
</svg>
